<?xml version="1.0" encoding="utf-8"?>
<!-- Generator: Adobe Illustrator 16.2.0, SVG Export Plug-In . SVG Version: 6.00 Build 0)  -->
<!DOCTYPE svg PUBLIC "-//W3C//DTD SVG 1.1//EN" "http://www.w3.org/Graphics/SVG/1.1/DTD/svg11.dtd">
<svg version="1.1" id="Layer_1" xmlns="http://www.w3.org/2000/svg" xmlns:xlink="http://www.w3.org/1999/xlink" x="0px" y="0px"
	 width="59.75px" height="69.5px" viewBox="0 0 59.75 69.5" enable-background="new 0 0 59.75 69.5" xml:space="preserve">
<line fill="none" stroke="#C0C0C0" stroke-width="0.51" stroke-linecap="round" stroke-linejoin="round" stroke-miterlimit="10" stroke-dasharray="43.2,3.6,3.6,3.6" stroke-dashoffset="40" x1="53.686" y1="64.644" x2="53.686" y2="47.635"/>
<line fill="none" stroke="#C0C0C0" stroke-width="0.51" stroke-linecap="round" stroke-linejoin="round" stroke-miterlimit="10" stroke-dasharray="43.2,3.6,3.6,3.6" stroke-dashoffset="40" x1="40.93" y1="64.644" x2="40.93" y2="47.635"/>
<line fill="none" stroke="#C0C0C0" stroke-width="0.51" stroke-linecap="round" stroke-linejoin="round" stroke-miterlimit="10" stroke-dasharray="43.2,3.6,3.6,3.6" stroke-dashoffset="40" x1="32.426" y1="64.644" x2="32.426" y2="47.635"/>
<line fill="none" stroke="#C0C0C0" stroke-width="0.51" stroke-linecap="round" stroke-linejoin="round" stroke-miterlimit="10" stroke-dasharray="43.2,3.6,3.6,3.6" stroke-dashoffset="40" x1="6.914" y1="64.644" x2="6.914" y2="47.635"/>
<line fill="none" stroke="#C0C0C0" stroke-width="0.51" stroke-linecap="round" stroke-linejoin="round" stroke-miterlimit="10" stroke-dasharray="43.2,3.6,3.6,3.6" stroke-dashoffset="40" x1="15.418" y1="64.644" x2="15.418" y2="47.635"/>
<line fill="none" stroke="#C0C0C0" stroke-width="0.51" stroke-linecap="round" stroke-linejoin="round" stroke-miterlimit="10" stroke-dasharray="43.2,3.6,3.6,3.6" stroke-dashoffset="40" x1="23.922" y1="64.644" x2="23.922" y2="47.635"/>
<path fill="none" stroke="#000000" stroke-width="0.709" stroke-linecap="round" stroke-linejoin="round" stroke-miterlimit="10" d="
	M56.25,5.2h-52 M4.25,5.2v42.5 M4.25,47.7l0.9,17 M5.15,64.7h3.4 M8.55,64.7l0.4-8.6 M8.95,56.1l1.1-1.8 M10.05,54.3h2.1
	 M12.15,54.3l1.1,1.8 M13.25,56.1l0.4,8.6 M13.65,64.7h3.4 M17.05,64.7l0.4-8.6 M17.45,56.1l1.1-1.8 M18.55,54.3h2.1 M20.65,54.3
	l1.1,1.8 M21.75,56.1l0.4,8.6 M22.15,64.7h3.4 M25.55,64.7l0.5-8.6 M26.05,56.1l1-1.8 M27.05,54.3h2.1 M29.15,54.3l1.1,1.8
	 M30.25,56.1l0.4,8.6 M30.65,64.7h3.4 M34.05,64.7l0.5-8.6 M34.55,56.1l1-1.8 M35.55,54.3h2.101 M37.65,54.3l1.1,1.8 M38.75,56.1
	l0.5,8.6 M39.25,64.7h3.3 M42.55,64.7l0.5-8.6 M43.05,56.1l1.2-2 M44.25,54.1h6 M50.25,54.1l1.3,2 M51.55,56.1l0.4,8.6 M51.95,64.7
	h3.399 M55.35,64.7l0.9-17 M56.25,47.7V5.2"/>
</svg>
